# xmcd
#
# Track frame offsets: 
#        150
#        9207
#        19517
#        28499
#        38081
#        46977
#        56975
#        69769
#        78590
#        89038
#        108085
#        119819
#        131770
#        144849
#        160856
#        173467
#        186509
#        198797
#        207479
#        219525
#        231936
#
# Disc length: 3237 seconds
#
# Revision: 0
# Processed by: cddbd v1.5.1PL0 Copyright (c) Steve Scherf et al.
# Submitted via: ExactAudioCopy v0.95a5
#
DISCID=270ca315
DTITLE=Ivory Joe Hunter - Jumpin' At The Dew Drop
DYEAR=1999
DGENRE=
TTITLE0=I'm Coming Down with The Blues
TTITLE1=Heartbreak Hill
TTITLE2=Looking For The Girl Who's Looking For The Guy To Love
TTITLE3=I'll Give You All Night To Stop
TTITLE4=Empty Arms
TTITLE5=It's All Right
TTITLE6=Brenda Brown (1st version)
TTITLE7=Adios Senorita
TTITLE8=Working On Me
TTITLE9=Medley: I Almost Lost My Mind/Empty Arms
TTITLE10=Jumpin' At The Dew Drop
TTITLE11=High Cost Low Paid Blues
TTITLE12=I Don't Love Her Any More
TTITLE13=You Taught Me To Love
TTITLE14=Tavern Swing
TTITLE15=Ivory Joe's Boogie
TTITLE16=Can I Help It
TTITLE17=Stolen Moments
TTITLE18=The Cold Grey Light Of Dawn
TTITLE19=The Masquerade Is Over
TTITLE20=The Angels Sent You
EXTD=
EXTT0=
EXTT1=
EXTT2=
EXTT3=
EXTT4=
EXTT5=
EXTT6=
EXTT7=
EXTT8=
EXTT9=
EXTT10=
EXTT11=
EXTT12=
EXTT13=
EXTT14=
EXTT15=
EXTT16=
EXTT17=
EXTT18=
EXTT19=
EXTT20=
PLAYORDER=
